<?xml version="1.0" encoding="UTF-8"?>
<svg version="1.1" xmlns="http://www.w3.org/2000/svg" width="26" height="32">
<path d="M0 0 C2.64 5.94 5.28 11.88 8 18 C6.68 18.33 5.36 18.66 4 19 C0.32793858 15.95487589 -1.50496516 13.15839141 -4 9 C-5.32 12.63 -6.64 16.26 -8 20 C-5.525 20.99 -5.525 20.99 -3 22 C-2.67 22.66 -2.34 23.32 -2 24 C-2.68707031 24.40992187 -3.37414063 24.81984375 -4.08203125 25.2421875 C-4.98308594 25.78101562 -5.88414063 26.31984375 -6.8125 26.875 C-8.15248047 27.67550781 -8.15248047 27.67550781 -9.51953125 28.4921875 C-11.37294724 29.61883092 -13.19529917 30.79686611 -15 32 C-15.99 32 -16.98 32 -18 32 C-16.63921725 25.35776341 -14.83977678 19.03066906 -12.625 12.625 C-12.33367188 11.73683594 -12.04234375 10.84867188 -11.7421875 9.93359375 C-11.44828125 9.08152344 -11.154375 8.22945312 -10.8515625 7.3515625 C-10.59197754 6.58666504 -10.33239258 5.82176758 -10.06494141 5.03369141 C-7.58013051 0.2885115 -5.28008224 0 0 0 Z " fill="#2D72ED" transform="translate(18,0)"/>
</svg>
